<?xml version="1.0" encoding="utf-8" standalone="no"?>
<!DOCTYPE svg PUBLIC "-//W3C//DTD SVG 1.1//EN"
  "http://www.w3.org/Graphics/SVG/1.1/DTD/svg11.dtd">
<!-- Created with matplotlib (https://matplotlib.org/) -->
<svg height="576pt" version="1.1" viewBox="0 0 576 576" width="576pt" xmlns="http://www.w3.org/2000/svg" xmlns:xlink="http://www.w3.org/1999/xlink">
 <defs>
  <style type="text/css">
*{stroke-linecap:butt;stroke-linejoin:round;}
  </style>
 </defs>
 <g id="figure_1">
  <g id="patch_1">
   <path d="M 0 576 
L 576 576 
L 576 0 
L 0 0 
z
" style="fill:#ffffff;"/>
  </g>
  <g id="axes_1">
   <g id="LineCollection_1">
    <path clip-path="url(#pd08c50522d)" d="M 123.024604 380.292061 
L 123.023293 354.576007 
" style="fill:none;stroke:#a9a9a9;stroke-width:1.5;"/>
    <path clip-path="url(#pd08c50522d)" d="M 157.312676 380.292061 
L 157.311365 354.576007 
" style="fill:none;stroke:#a9a9a9;stroke-width:1.5;"/>
    <path clip-path="url(#pd08c50522d)" d="M 191.600749 380.292061 
L 191.599437 354.576007 
" style="fill:none;stroke:#a9a9a9;stroke-width:1.5;"/>
    <path clip-path="url(#pd08c50522d)" d="M 225.888821 380.292061 
L 225.887509 354.576007 
" style="fill:none;stroke:#a9a9a9;stroke-width:1.5;"/>
    <path clip-path="url(#pd08c50522d)" d="M 123.023293 354.576007 
L 123.024155 332.28876 
" style="fill:none;stroke:#a9a9a9;stroke-width:1.5;"/>
    <path clip-path="url(#pd08c50522d)" d="M 157.311365 354.576007 
L 157.312227 332.28876 
" style="fill:none;stroke:#a9a9a9;stroke-width:1.5;"/>
    <path clip-path="url(#pd08c50522d)" d="M 191.599437 354.576007 
L 191.6003 332.28876 
" style="fill:none;stroke:#a9a9a9;stroke-width:1.5;"/>
    <path clip-path="url(#pd08c50522d)" d="M 225.887509 354.576007 
L 225.888372 332.28876 
" style="fill:none;stroke:#a9a9a9;stroke-width:1.5;"/>
    <path clip-path="url(#pd08c50522d)" d="M 123.024155 332.28876 
L 123.024128 310.001513 
" style="fill:none;stroke:#a9a9a9;stroke-width:1.5;"/>
    <path clip-path="url(#pd08c50522d)" d="M 157.312227 332.28876 
L 157.3122 310.001513 
" style="fill:none;stroke:#a9a9a9;stroke-width:1.5;"/>
    <path clip-path="url(#pd08c50522d)" d="M 191.6003 332.28876 
L 191.600272 310.001513 
" style="fill:none;stroke:#a9a9a9;stroke-width:1.5;"/>
    <path clip-path="url(#pd08c50522d)" d="M 225.888372 332.28876 
L 225.888345 310.001513 
" style="fill:none;stroke:#a9a9a9;stroke-width:1.5;"/>
    <path clip-path="url(#pd08c50522d)" d="M 123.024128 310.001513 
L 123.024279 287.714266 
" style="fill:none;stroke:#a9a9a9;stroke-width:1.5;"/>
    <path clip-path="url(#pd08c50522d)" d="M 157.3122 310.001513 
L 157.312351 287.714266 
" style="fill:none;stroke:#a9a9a9;stroke-width:1.5;"/>
    <path clip-path="url(#pd08c50522d)" d="M 191.600272 310.001513 
L 191.600423 287.714266 
" style="fill:none;stroke:#a9a9a9;stroke-width:1.5;"/>
    <path clip-path="url(#pd08c50522d)" d="M 225.888345 310.001513 
L 225.888496 287.714266 
" style="fill:none;stroke:#a9a9a9;stroke-width:1.5;"/>
    <path clip-path="url(#pd08c50522d)" d="M 123.024279 287.714266 
L 123.024375 265.427019 
" style="fill:none;stroke:#a9a9a9;stroke-width:1.5;"/>
    <path clip-path="url(#pd08c50522d)" d="M 157.312351 287.714266 
L 157.312447 265.427019 
" style="fill:none;stroke:#a9a9a9;stroke-width:1.5;"/>
    <path clip-path="url(#pd08c50522d)" d="M 191.600423 287.714266 
L 191.600519 265.427019 
" style="fill:none;stroke:#a9a9a9;stroke-width:1.5;"/>
    <path clip-path="url(#pd08c50522d)" d="M 225.888496 287.714266 
L 225.888591 265.427019 
" style="fill:none;stroke:#a9a9a9;stroke-width:1.5;"/>
    <path clip-path="url(#pd08c50522d)" d="M 123.024375 265.427019 
L 123.02438 243.139772 
" style="fill:none;stroke:#a9a9a9;stroke-width:1.5;"/>
    <path clip-path="url(#pd08c50522d)" d="M 157.312447 265.427019 
L 157.312452 243.139772 
" style="fill:none;stroke:#a9a9a9;stroke-width:1.5;"/>
    <path clip-path="url(#pd08c50522d)" d="M 191.600519 265.427019 
L 191.600524 243.139772 
" style="fill:none;stroke:#a9a9a9;stroke-width:1.5;"/>
    <path clip-path="url(#pd08c50522d)" d="M 225.888591 265.427019 
L 225.888597 243.139772 
" style="fill:none;stroke:#a9a9a9;stroke-width:1.5;"/>
    <path clip-path="url(#pd08c50522d)" d="M 123.02438 243.139772 
L 123.024643 220.852525 
" style="fill:none;stroke:#a9a9a9;stroke-width:1.5;"/>
    <path clip-path="url(#pd08c50522d)" d="M 157.312452 243.139772 
L 157.312716 220.852525 
" style="fill:none;stroke:#a9a9a9;stroke-width:1.5;"/>
    <path clip-path="url(#pd08c50522d)" d="M 191.600524 243.139772 
L 191.600788 220.852525 
" style="fill:none;stroke:#a9a9a9;stroke-width:1.5;"/>
    <path clip-path="url(#pd08c50522d)" d="M 225.888597 243.139772 
L 225.88886 220.852525 
" style="fill:none;stroke:#a9a9a9;stroke-width:1.5;"/>
    <path clip-path="url(#pd08c50522d)" d="M 123.024643 220.852525 
L 123.023992 198.565278 
" style="fill:none;stroke:#a9a9a9;stroke-width:1.5;"/>
    <path clip-path="url(#pd08c50522d)" d="M 157.312716 220.852525 
L 157.312064 198.565278 
" style="fill:none;stroke:#a9a9a9;stroke-width:1.5;"/>
    <path clip-path="url(#pd08c50522d)" d="M 191.600788 220.852525 
L 191.600136 198.565278 
" style="fill:none;stroke:#a9a9a9;stroke-width:1.5;"/>
    <path clip-path="url(#pd08c50522d)" d="M 225.88886 220.852525 
L 225.888208 198.565278 
" style="fill:none;stroke:#a9a9a9;stroke-width:1.5;"/>
   </g>
   <g id="LineCollection_2">
    <path clip-path="url(#pd08c50522d)" d="M 123.023293 354.576007 
L 157.311365 354.576007 
" style="fill:none;stroke:#a9a9a9;stroke-width:1.5;"/>
    <path clip-path="url(#pd08c50522d)" d="M 157.311365 354.576007 
L 191.599437 354.576007 
" style="fill:none;stroke:#a9a9a9;stroke-width:1.5;"/>
    <path clip-path="url(#pd08c50522d)" d="M 191.599437 354.576007 
L 225.887509 354.576007 
" style="fill:none;stroke:#a9a9a9;stroke-width:1.5;"/>
    <path clip-path="url(#pd08c50522d)" d="M 123.024155 332.28876 
L 157.312227 332.28876 
" style="fill:none;stroke:#a9a9a9;stroke-width:1.5;"/>
    <path clip-path="url(#pd08c50522d)" d="M 157.312227 332.28876 
L 191.6003 332.28876 
" style="fill:none;stroke:#a9a9a9;stroke-width:1.5;"/>
    <path clip-path="url(#pd08c50522d)" d="M 191.6003 332.28876 
L 225.888372 332.28876 
" style="fill:none;stroke:#a9a9a9;stroke-width:1.5;"/>
    <path clip-path="url(#pd08c50522d)" d="M 123.024128 310.001513 
L 157.3122 310.001513 
" style="fill:none;stroke:#a9a9a9;stroke-width:1.5;"/>
    <path clip-path="url(#pd08c50522d)" d="M 157.3122 310.001513 
L 191.600272 310.001513 
" style="fill:none;stroke:#a9a9a9;stroke-width:1.5;"/>
    <path clip-path="url(#pd08c50522d)" d="M 191.600272 310.001513 
L 225.888345 310.001513 
" style="fill:none;stroke:#a9a9a9;stroke-width:1.5;"/>
    <path clip-path="url(#pd08c50522d)" d="M 123.024279 287.714266 
L 157.312351 287.714266 
" style="fill:none;stroke:#a9a9a9;stroke-width:1.5;"/>
    <path clip-path="url(#pd08c50522d)" d="M 157.312351 287.714266 
L 191.600423 287.714266 
" style="fill:none;stroke:#a9a9a9;stroke-width:1.5;"/>
    <path clip-path="url(#pd08c50522d)" d="M 191.600423 287.714266 
L 225.888496 287.714266 
" style="fill:none;stroke:#a9a9a9;stroke-width:1.5;"/>
    <path clip-path="url(#pd08c50522d)" d="M 123.024375 265.427019 
L 157.312447 265.427019 
" style="fill:none;stroke:#a9a9a9;stroke-width:1.5;"/>
    <path clip-path="url(#pd08c50522d)" d="M 157.312447 265.427019 
L 191.600519 265.427019 
" style="fill:none;stroke:#a9a9a9;stroke-width:1.5;"/>
    <path clip-path="url(#pd08c50522d)" d="M 191.600519 265.427019 
L 225.888591 265.427019 
" style="fill:none;stroke:#a9a9a9;stroke-width:1.5;"/>
    <path clip-path="url(#pd08c50522d)" d="M 123.02438 243.139772 
L 157.312452 243.139772 
" style="fill:none;stroke:#a9a9a9;stroke-width:1.5;"/>
    <path clip-path="url(#pd08c50522d)" d="M 157.312452 243.139772 
L 191.600524 243.139772 
" style="fill:none;stroke:#a9a9a9;stroke-width:1.5;"/>
    <path clip-path="url(#pd08c50522d)" d="M 191.600524 243.139772 
L 225.888597 243.139772 
" style="fill:none;stroke:#a9a9a9;stroke-width:1.5;"/>
    <path clip-path="url(#pd08c50522d)" d="M 123.024643 220.852525 
L 157.312716 220.852525 
" style="fill:none;stroke:#a9a9a9;stroke-width:1.5;"/>
    <path clip-path="url(#pd08c50522d)" d="M 157.312716 220.852525 
L 191.600788 220.852525 
" style="fill:none;stroke:#a9a9a9;stroke-width:1.5;"/>
    <path clip-path="url(#pd08c50522d)" d="M 191.600788 220.852525 
L 225.88886 220.852525 
" style="fill:none;stroke:#a9a9a9;stroke-width:1.5;"/>
    <path clip-path="url(#pd08c50522d)" d="M 123.023992 198.565278 
L 157.312064 198.565278 
" style="fill:none;stroke:#a9a9a9;stroke-width:1.5;"/>
    <path clip-path="url(#pd08c50522d)" d="M 157.312064 198.565278 
L 191.600136 198.565278 
" style="fill:none;stroke:#a9a9a9;stroke-width:1.5;"/>
    <path clip-path="url(#pd08c50522d)" d="M 191.600136 198.565278 
L 225.888208 198.565278 
" style="fill:none;stroke:#a9a9a9;stroke-width:1.5;"/>
   </g>
   <g id="LineCollection_3">
    <path clip-path="url(#pd08c50522d)" d="M 123.024604 380.292061 
L 120.84274 354.576007 
" style="fill:none;stroke:#000000;stroke-width:1.5;"/>
    <path clip-path="url(#pd08c50522d)" d="M 157.312676 380.292061 
L 155.130812 354.576007 
" style="fill:none;stroke:#000000;stroke-width:1.5;"/>
    <path clip-path="url(#pd08c50522d)" d="M 191.600749 380.292061 
L 189.418884 354.576007 
" style="fill:none;stroke:#000000;stroke-width:1.5;"/>
    <path clip-path="url(#pd08c50522d)" d="M 225.888821 380.292061 
L 223.706956 354.576007 
" style="fill:none;stroke:#000000;stroke-width:1.5;"/>
    <path clip-path="url(#pd08c50522d)" d="M 120.84274 354.576007 
L 118.747167 332.28876 
" style="fill:none;stroke:#000000;stroke-width:1.5;"/>
    <path clip-path="url(#pd08c50522d)" d="M 155.130812 354.576007 
L 153.035239 332.28876 
" style="fill:none;stroke:#000000;stroke-width:1.5;"/>
    <path clip-path="url(#pd08c50522d)" d="M 189.418884 354.576007 
L 187.323312 332.28876 
" style="fill:none;stroke:#000000;stroke-width:1.5;"/>
    <path clip-path="url(#pd08c50522d)" d="M 223.706956 354.576007 
L 221.611384 332.28876 
" style="fill:none;stroke:#000000;stroke-width:1.5;"/>
    <path clip-path="url(#pd08c50522d)" d="M 118.747167 332.28876 
L 116.405078 310.001513 
" style="fill:none;stroke:#000000;stroke-width:1.5;"/>
    <path clip-path="url(#pd08c50522d)" d="M 153.035239 332.28876 
L 150.69315 310.001513 
" style="fill:none;stroke:#000000;stroke-width:1.5;"/>
    <path clip-path="url(#pd08c50522d)" d="M 187.323312 332.28876 
L 184.981222 310.001513 
" style="fill:none;stroke:#000000;stroke-width:1.5;"/>
    <path clip-path="url(#pd08c50522d)" d="M 221.611384 332.28876 
L 219.269294 310.001513 
" style="fill:none;stroke:#000000;stroke-width:1.5;"/>
    <path clip-path="url(#pd08c50522d)" d="M 116.405078 310.001513 
L 113.815399 287.714266 
" style="fill:none;stroke:#000000;stroke-width:1.5;"/>
    <path clip-path="url(#pd08c50522d)" d="M 150.69315 310.001513 
L 148.103472 287.714266 
" style="fill:none;stroke:#000000;stroke-width:1.5;"/>
    <path clip-path="url(#pd08c50522d)" d="M 184.981222 310.001513 
L 182.391544 287.714266 
" style="fill:none;stroke:#000000;stroke-width:1.5;"/>
    <path clip-path="url(#pd08c50522d)" d="M 219.269294 310.001513 
L 216.679616 287.714266 
" style="fill:none;stroke:#000000;stroke-width:1.5;"/>
    <path clip-path="url(#pd08c50522d)" d="M 113.815399 287.714266 
L 111.239451 265.427019 
" style="fill:none;stroke:#000000;stroke-width:1.5;"/>
    <path clip-path="url(#pd08c50522d)" d="M 148.103472 287.714266 
L 145.527523 265.427019 
" style="fill:none;stroke:#000000;stroke-width:1.5;"/>
    <path clip-path="url(#pd08c50522d)" d="M 182.391544 287.714266 
L 179.815595 265.427019 
" style="fill:none;stroke:#000000;stroke-width:1.5;"/>
    <path clip-path="url(#pd08c50522d)" d="M 216.679616 287.714266 
L 214.103667 265.427019 
" style="fill:none;stroke:#000000;stroke-width:1.5;"/>
    <path clip-path="url(#pd08c50522d)" d="M 111.239451 265.427019 
L 109.730161 243.139772 
" style="fill:none;stroke:#000000;stroke-width:1.5;"/>
    <path clip-path="url(#pd08c50522d)" d="M 145.527523 265.427019 
L 144.018234 243.139772 
" style="fill:none;stroke:#000000;stroke-width:1.5;"/>
    <path clip-path="url(#pd08c50522d)" d="M 179.815595 265.427019 
L 178.306306 243.139772 
" style="fill:none;stroke:#000000;stroke-width:1.5;"/>
    <path clip-path="url(#pd08c50522d)" d="M 214.103667 265.427019 
L 212.594378 243.139772 
" style="fill:none;stroke:#000000;stroke-width:1.5;"/>
    <path clip-path="url(#pd08c50522d)" d="M 109.730161 243.139772 
L 109.595524 220.852525 
" style="fill:none;stroke:#000000;stroke-width:1.5;"/>
    <path clip-path="url(#pd08c50522d)" d="M 144.018234 243.139772 
L 143.883596 220.852525 
" style="fill:none;stroke:#000000;stroke-width:1.5;"/>
    <path clip-path="url(#pd08c50522d)" d="M 178.306306 243.139772 
L 178.171668 220.852525 
" style="fill:none;stroke:#000000;stroke-width:1.5;"/>
    <path clip-path="url(#pd08c50522d)" d="M 212.594378 243.139772 
L 212.45974 220.852525 
" style="fill:none;stroke:#000000;stroke-width:1.5;"/>
    <path clip-path="url(#pd08c50522d)" d="M 109.595524 220.852525 
L 109.378866 198.565278 
" style="fill:none;stroke:#000000;stroke-width:1.5;"/>
    <path clip-path="url(#pd08c50522d)" d="M 143.883596 220.852525 
L 143.666938 198.565278 
" style="fill:none;stroke:#000000;stroke-width:1.5;"/>
    <path clip-path="url(#pd08c50522d)" d="M 178.171668 220.852525 
L 177.95501 198.565278 
" style="fill:none;stroke:#000000;stroke-width:1.5;"/>
    <path clip-path="url(#pd08c50522d)" d="M 212.45974 220.852525 
L 212.243082 198.565278 
" style="fill:none;stroke:#000000;stroke-width:1.5;"/>
   </g>
   <g id="LineCollection_4">
    <path clip-path="url(#pd08c50522d)" d="M 120.84274 354.576007 
L 155.130812 354.576007 
" style="fill:none;stroke:#000000;stroke-width:1.5;"/>
    <path clip-path="url(#pd08c50522d)" d="M 155.130812 354.576007 
L 189.418884 354.576007 
" style="fill:none;stroke:#000000;stroke-width:1.5;"/>
    <path clip-path="url(#pd08c50522d)" d="M 189.418884 354.576007 
L 223.706956 354.576007 
" style="fill:none;stroke:#000000;stroke-width:1.5;"/>
    <path clip-path="url(#pd08c50522d)" d="M 118.747167 332.28876 
L 153.035239 332.28876 
" style="fill:none;stroke:#000000;stroke-width:1.5;"/>
    <path clip-path="url(#pd08c50522d)" d="M 153.035239 332.28876 
L 187.323312 332.28876 
" style="fill:none;stroke:#000000;stroke-width:1.5;"/>
    <path clip-path="url(#pd08c50522d)" d="M 187.323312 332.28876 
L 221.611384 332.28876 
" style="fill:none;stroke:#000000;stroke-width:1.5;"/>
    <path clip-path="url(#pd08c50522d)" d="M 116.405078 310.001513 
L 150.69315 310.001513 
" style="fill:none;stroke:#000000;stroke-width:1.5;"/>
    <path clip-path="url(#pd08c50522d)" d="M 150.69315 310.001513 
L 184.981222 310.001513 
" style="fill:none;stroke:#000000;stroke-width:1.5;"/>
    <path clip-path="url(#pd08c50522d)" d="M 184.981222 310.001513 
L 219.269294 310.001513 
" style="fill:none;stroke:#000000;stroke-width:1.5;"/>
    <path clip-path="url(#pd08c50522d)" d="M 113.815399 287.714266 
L 148.103472 287.714266 
" style="fill:none;stroke:#000000;stroke-width:1.5;"/>
    <path clip-path="url(#pd08c50522d)" d="M 148.103472 287.714266 
L 182.391544 287.714266 
" style="fill:none;stroke:#000000;stroke-width:1.5;"/>
    <path clip-path="url(#pd08c50522d)" d="M 182.391544 287.714266 
L 216.679616 287.714266 
" style="fill:none;stroke:#000000;stroke-width:1.5;"/>
    <path clip-path="url(#pd08c50522d)" d="M 111.239451 265.427019 
L 145.527523 265.427019 
" style="fill:none;stroke:#000000;stroke-width:1.5;"/>
    <path clip-path="url(#pd08c50522d)" d="M 145.527523 265.427019 
L 179.815595 265.427019 
" style="fill:none;stroke:#000000;stroke-width:1.5;"/>
    <path clip-path="url(#pd08c50522d)" d="M 179.815595 265.427019 
L 214.103667 265.427019 
" style="fill:none;stroke:#000000;stroke-width:1.5;"/>
    <path clip-path="url(#pd08c50522d)" d="M 109.730161 243.139772 
L 144.018234 243.139772 
" style="fill:none;stroke:#000000;stroke-width:1.5;"/>
    <path clip-path="url(#pd08c50522d)" d="M 144.018234 243.139772 
L 178.306306 243.139772 
" style="fill:none;stroke:#000000;stroke-width:1.5;"/>
    <path clip-path="url(#pd08c50522d)" d="M 178.306306 243.139772 
L 212.594378 243.139772 
" style="fill:none;stroke:#000000;stroke-width:1.5;"/>
    <path clip-path="url(#pd08c50522d)" d="M 109.595524 220.852525 
L 143.883596 220.852525 
" style="fill:none;stroke:#000000;stroke-width:1.5;"/>
    <path clip-path="url(#pd08c50522d)" d="M 143.883596 220.852525 
L 178.171668 220.852525 
" style="fill:none;stroke:#000000;stroke-width:1.5;"/>
    <path clip-path="url(#pd08c50522d)" d="M 178.171668 220.852525 
L 212.45974 220.852525 
" style="fill:none;stroke:#000000;stroke-width:1.5;"/>
    <path clip-path="url(#pd08c50522d)" d="M 109.378866 198.565278 
L 143.666938 198.565278 
" style="fill:none;stroke:#000000;stroke-width:1.5;"/>
    <path clip-path="url(#pd08c50522d)" d="M 143.666938 198.565278 
L 177.95501 198.565278 
" style="fill:none;stroke:#000000;stroke-width:1.5;"/>
    <path clip-path="url(#pd08c50522d)" d="M 177.95501 198.565278 
L 212.243082 198.565278 
" style="fill:none;stroke:#000000;stroke-width:1.5;"/>
   </g>
   <g id="line2d_1">
    <defs>
     <path d="M 0 3 
C 0.795609 3 1.55874 2.683901 2.12132 2.12132 
C 2.683901 1.55874 3 0.795609 3 0 
C 3 -0.795609 2.683901 -1.55874 2.12132 -2.12132 
C 1.55874 -2.683901 0.795609 -3 0 -3 
C -0.795609 -3 -1.55874 -2.683901 -2.12132 -2.12132 
C -2.683901 -1.55874 -3 -0.795609 -3 0 
C -3 0.795609 -2.683901 1.55874 -2.12132 2.12132 
C -1.55874 2.683901 -0.795609 3 0 3 
z
" id="m01c4f8e6d9" style="stroke:#bf00bf;"/>
    </defs>
    <g clip-path="url(#pd08c50522d)">
     <use style="fill:#bf00bf;stroke:#bf00bf;" x="123.024604" xlink:href="#m01c4f8e6d9" y="374.577382"/>
     <use style="fill:#bf00bf;stroke:#bf00bf;" x="157.312676" xlink:href="#m01c4f8e6d9" y="374.577382"/>
     <use style="fill:#bf00bf;stroke:#bf00bf;" x="191.600749" xlink:href="#m01c4f8e6d9" y="374.577382"/>
     <use style="fill:#bf00bf;stroke:#bf00bf;" x="225.888821" xlink:href="#m01c4f8e6d9" y="374.577382"/>
     <use style="fill:#bf00bf;stroke:#bf00bf;" x="126.557419" xlink:href="#m01c4f8e6d9" y="354.576007"/>
     <use style="fill:#bf00bf;stroke:#bf00bf;" x="160.845491" xlink:href="#m01c4f8e6d9" y="354.576007"/>
     <use style="fill:#bf00bf;stroke:#bf00bf;" x="149.416133" xlink:href="#m01c4f8e6d9" y="354.576007"/>
     <use style="fill:#bf00bf;stroke:#bf00bf;" x="195.133563" xlink:href="#m01c4f8e6d9" y="354.576007"/>
     <use style="fill:#bf00bf;stroke:#bf00bf;" x="183.704206" xlink:href="#m01c4f8e6d9" y="354.576007"/>
     <use style="fill:#bf00bf;stroke:#bf00bf;" x="217.992278" xlink:href="#m01c4f8e6d9" y="354.576007"/>
     <use style="fill:#bf00bf;stroke:#bf00bf;" x="124.461846" xlink:href="#m01c4f8e6d9" y="332.28876"/>
     <use style="fill:#bf00bf;stroke:#bf00bf;" x="158.749918" xlink:href="#m01c4f8e6d9" y="332.28876"/>
     <use style="fill:#bf00bf;stroke:#bf00bf;" x="147.320561" xlink:href="#m01c4f8e6d9" y="332.28876"/>
     <use style="fill:#bf00bf;stroke:#bf00bf;" x="193.03799" xlink:href="#m01c4f8e6d9" y="332.28876"/>
     <use style="fill:#bf00bf;stroke:#bf00bf;" x="181.608633" xlink:href="#m01c4f8e6d9" y="332.28876"/>
     <use style="fill:#bf00bf;stroke:#bf00bf;" x="215.896705" xlink:href="#m01c4f8e6d9" y="332.28876"/>
     <use style="fill:#bf00bf;stroke:#bf00bf;" x="122.119756" xlink:href="#m01c4f8e6d9" y="310.001513"/>
     <use style="fill:#bf00bf;stroke:#bf00bf;" x="156.407828" xlink:href="#m01c4f8e6d9" y="310.001513"/>
     <use style="fill:#bf00bf;stroke:#bf00bf;" x="144.978471" xlink:href="#m01c4f8e6d9" y="310.001513"/>
     <use style="fill:#bf00bf;stroke:#bf00bf;" x="190.695901" xlink:href="#m01c4f8e6d9" y="310.001513"/>
     <use style="fill:#bf00bf;stroke:#bf00bf;" x="179.266543" xlink:href="#m01c4f8e6d9" y="310.001513"/>
     <use style="fill:#bf00bf;stroke:#bf00bf;" x="213.554615" xlink:href="#m01c4f8e6d9" y="310.001513"/>
     <use style="fill:#bf00bf;stroke:#bf00bf;" x="119.530078" xlink:href="#m01c4f8e6d9" y="287.714266"/>
     <use style="fill:#bf00bf;stroke:#bf00bf;" x="153.81815" xlink:href="#m01c4f8e6d9" y="287.714266"/>
     <use style="fill:#bf00bf;stroke:#bf00bf;" x="142.388793" xlink:href="#m01c4f8e6d9" y="287.714266"/>
     <use style="fill:#bf00bf;stroke:#bf00bf;" x="188.106223" xlink:href="#m01c4f8e6d9" y="287.714266"/>
     <use style="fill:#bf00bf;stroke:#bf00bf;" x="176.676865" xlink:href="#m01c4f8e6d9" y="287.714266"/>
     <use style="fill:#bf00bf;stroke:#bf00bf;" x="210.964937" xlink:href="#m01c4f8e6d9" y="287.714266"/>
     <use style="fill:#bf00bf;stroke:#bf00bf;" x="208.388989" xlink:href="#m01c4f8e6d9" y="265.427019"/>
    </g>
   </g>
   <g id="line2d_2"/>
   <g id="line2d_3"/>
   <g id="text_1">
    <!-- 0.13 -->
    <defs>
     <path d="M 31.78125 66.40625 
Q 24.171875 66.40625 20.328125 58.90625 
Q 16.5 51.421875 16.5 36.375 
Q 16.5 21.390625 20.328125 13.890625 
Q 24.171875 6.390625 31.78125 6.390625 
Q 39.453125 6.390625 43.28125 13.890625 
Q 47.125 21.390625 47.125 36.375 
Q 47.125 51.421875 43.28125 58.90625 
Q 39.453125 66.40625 31.78125 66.40625 
z
M 31.78125 74.21875 
Q 44.046875 74.21875 50.515625 64.515625 
Q 56.984375 54.828125 56.984375 36.375 
Q 56.984375 17.96875 50.515625 8.265625 
Q 44.046875 -1.421875 31.78125 -1.421875 
Q 19.53125 -1.421875 13.0625 8.265625 
Q 6.59375 17.96875 6.59375 36.375 
Q 6.59375 54.828125 13.0625 64.515625 
Q 19.53125 74.21875 31.78125 74.21875 
z
" id="DejaVuSans-48"/>
     <path d="M 10.6875 12.40625 
L 21 12.40625 
L 21 0 
L 10.6875 0 
z
" id="DejaVuSans-46"/>
     <path d="M 12.40625 8.296875 
L 28.515625 8.296875 
L 28.515625 63.921875 
L 10.984375 60.40625 
L 10.984375 69.390625 
L 28.421875 72.90625 
L 38.28125 72.90625 
L 38.28125 8.296875 
L 54.390625 8.296875 
L 54.390625 0 
L 12.40625 0 
z
" id="DejaVuSans-49"/>
     <path d="M 40.578125 39.3125 
Q 47.65625 37.796875 51.625 33 
Q 55.609375 28.21875 55.609375 21.1875 
Q 55.609375 10.40625 48.1875 4.484375 
Q 40.765625 -1.421875 27.09375 -1.421875 
Q 22.515625 -1.421875 17.65625 -0.515625 
Q 12.796875 0.390625 7.625 2.203125 
L 7.625 11.71875 
Q 11.71875 9.328125 16.59375 8.109375 
Q 21.484375 6.890625 26.8125 6.890625 
Q 36.078125 6.890625 40.9375 10.546875 
Q 45.796875 14.203125 45.796875 21.1875 
Q 45.796875 27.640625 41.28125 31.265625 
Q 36.765625 34.90625 28.71875 34.90625 
L 20.21875 34.90625 
L 20.21875 43.015625 
L 29.109375 43.015625 
Q 36.375 43.015625 40.234375 45.921875 
Q 44.09375 48.828125 44.09375 54.296875 
Q 44.09375 59.90625 40.109375 62.90625 
Q 36.140625 65.921875 28.71875 65.921875 
Q 24.65625 65.921875 20.015625 65.03125 
Q 15.375 64.15625 9.8125 62.3125 
L 9.8125 71.09375 
Q 15.4375 72.65625 20.34375 73.4375 
Q 25.25 74.21875 29.59375 74.21875 
Q 40.828125 74.21875 47.359375 69.109375 
Q 53.90625 64.015625 53.90625 55.328125 
Q 53.90625 49.265625 50.4375 45.09375 
Q 46.96875 40.921875 40.578125 39.3125 
z
" id="DejaVuSans-51"/>
    </defs>
    <g transform="translate(265.891572 380.292061)scale(0.12 -0.12)">
     <use xlink:href="#DejaVuSans-48"/>
     <use x="63.623047" xlink:href="#DejaVuSans-46"/>
     <use x="95.410156" xlink:href="#DejaVuSans-49"/>
     <use x="159.033203" xlink:href="#DejaVuSans-51"/>
    </g>
   </g>
   <g id="text_2">
    <!-- 0.16 -->
    <defs>
     <path d="M 33.015625 40.375 
Q 26.375 40.375 22.484375 35.828125 
Q 18.609375 31.296875 18.609375 23.390625 
Q 18.609375 15.53125 22.484375 10.953125 
Q 26.375 6.390625 33.015625 6.390625 
Q 39.65625 6.390625 43.53125 10.953125 
Q 47.40625 15.53125 47.40625 23.390625 
Q 47.40625 31.296875 43.53125 35.828125 
Q 39.65625 40.375 33.015625 40.375 
z
M 52.59375 71.296875 
L 52.59375 62.3125 
Q 48.875 64.0625 45.09375 64.984375 
Q 41.3125 65.921875 37.59375 65.921875 
Q 27.828125 65.921875 22.671875 59.328125 
Q 17.53125 52.734375 16.796875 39.40625 
Q 19.671875 43.65625 24.015625 45.921875 
Q 28.375 48.1875 33.59375 48.1875 
Q 44.578125 48.1875 50.953125 41.515625 
Q 57.328125 34.859375 57.328125 23.390625 
Q 57.328125 12.15625 50.6875 5.359375 
Q 44.046875 -1.421875 33.015625 -1.421875 
Q 20.359375 -1.421875 13.671875 8.265625 
Q 6.984375 17.96875 6.984375 36.375 
Q 6.984375 53.65625 15.1875 63.9375 
Q 23.390625 74.21875 37.203125 74.21875 
Q 40.921875 74.21875 44.703125 73.484375 
Q 48.484375 72.75 52.59375 71.296875 
z
" id="DejaVuSans-54"/>
    </defs>
    <g style="fill:#ff0000;" transform="translate(265.891572 354.576007)scale(0.12 -0.12)">
     <use xlink:href="#DejaVuSans-48"/>
     <use x="63.623047" xlink:href="#DejaVuSans-46"/>
     <use x="95.410156" xlink:href="#DejaVuSans-49"/>
     <use x="159.033203" xlink:href="#DejaVuSans-54"/>
    </g>
   </g>
   <g id="text_3">
    <!-- 0.16 -->
    <g transform="translate(265.891572 332.28876)scale(0.12 -0.12)">
     <use xlink:href="#DejaVuSans-48"/>
     <use x="63.623047" xlink:href="#DejaVuSans-46"/>
     <use x="95.410156" xlink:href="#DejaVuSans-49"/>
     <use x="159.033203" xlink:href="#DejaVuSans-54"/>
    </g>
   </g>
   <g id="text_4">
    <!-- 0.16 -->
    <g transform="translate(265.891572 310.001513)scale(0.12 -0.12)">
     <use xlink:href="#DejaVuSans-48"/>
     <use x="63.623047" xlink:href="#DejaVuSans-46"/>
     <use x="95.410156" xlink:href="#DejaVuSans-49"/>
     <use x="159.033203" xlink:href="#DejaVuSans-54"/>
    </g>
   </g>
   <g id="text_5">
    <!-- 0.13 -->
    <g transform="translate(265.891572 287.714266)scale(0.12 -0.12)">
     <use xlink:href="#DejaVuSans-48"/>
     <use x="63.623047" xlink:href="#DejaVuSans-46"/>
     <use x="95.410156" xlink:href="#DejaVuSans-49"/>
     <use x="159.033203" xlink:href="#DejaVuSans-51"/>
    </g>
   </g>
   <g id="text_6">
    <!-- 0.07 -->
    <defs>
     <path d="M 8.203125 72.90625 
L 55.078125 72.90625 
L 55.078125 68.703125 
L 28.609375 0 
L 18.3125 0 
L 43.21875 64.59375 
L 8.203125 64.59375 
z
" id="DejaVuSans-55"/>
    </defs>
    <g transform="translate(265.891572 265.427019)scale(0.12 -0.12)">
     <use xlink:href="#DejaVuSans-48"/>
     <use x="63.623047" xlink:href="#DejaVuSans-46"/>
     <use x="95.410156" xlink:href="#DejaVuSans-48"/>
     <use x="159.033203" xlink:href="#DejaVuSans-55"/>
    </g>
   </g>
   <g id="text_7">
    <!-- 0.03 -->
    <g transform="translate(265.891572 243.139772)scale(0.12 -0.12)">
     <use xlink:href="#DejaVuSans-48"/>
     <use x="63.623047" xlink:href="#DejaVuSans-46"/>
     <use x="95.410156" xlink:href="#DejaVuSans-48"/>
     <use x="159.033203" xlink:href="#DejaVuSans-51"/>
    </g>
   </g>
   <g id="text_8">
    <!-- 0.0 -->
    <g transform="translate(265.891572 220.852525)scale(0.12 -0.12)">
     <use xlink:href="#DejaVuSans-48"/>
     <use x="63.623047" xlink:href="#DejaVuSans-46"/>
     <use x="95.410156" xlink:href="#DejaVuSans-48"/>
    </g>
   </g>
   <g id="text_9">
    <!-- 0.0 -->
    <g transform="translate(265.891572 195.136471)scale(0.12 -0.12)">
     <use xlink:href="#DejaVuSans-48"/>
     <use x="63.623047" xlink:href="#DejaVuSans-46"/>
     <use x="95.410156" xlink:href="#DejaVuSans-48"/>
    </g>
   </g>
   <g id="text_10">
    <!-- -0.9% -->
    <defs>
     <path d="M 4.890625 31.390625 
L 31.203125 31.390625 
L 31.203125 23.390625 
L 4.890625 23.390625 
z
" id="DejaVuSans-45"/>
     <path d="M 10.984375 1.515625 
L 10.984375 10.5 
Q 14.703125 8.734375 18.5 7.8125 
Q 22.3125 6.890625 25.984375 6.890625 
Q 35.75 6.890625 40.890625 13.453125 
Q 46.046875 20.015625 46.78125 33.40625 
Q 43.953125 29.203125 39.59375 26.953125 
Q 35.25 24.703125 29.984375 24.703125 
Q 19.046875 24.703125 12.671875 31.3125 
Q 6.296875 37.9375 6.296875 49.421875 
Q 6.296875 60.640625 12.9375 67.421875 
Q 19.578125 74.21875 30.609375 74.21875 
Q 43.265625 74.21875 49.921875 64.515625 
Q 56.59375 54.828125 56.59375 36.375 
Q 56.59375 19.140625 48.40625 8.859375 
Q 40.234375 -1.421875 26.421875 -1.421875 
Q 22.703125 -1.421875 18.890625 -0.6875 
Q 15.09375 0.046875 10.984375 1.515625 
z
M 30.609375 32.421875 
Q 37.25 32.421875 41.125 36.953125 
Q 45.015625 41.5 45.015625 49.421875 
Q 45.015625 57.28125 41.125 61.84375 
Q 37.25 66.40625 30.609375 66.40625 
Q 23.96875 66.40625 20.09375 61.84375 
Q 16.21875 57.28125 16.21875 49.421875 
Q 16.21875 41.5 20.09375 36.953125 
Q 23.96875 32.421875 30.609375 32.421875 
z
" id="DejaVuSans-57"/>
     <path d="M 72.703125 32.078125 
Q 68.453125 32.078125 66.03125 28.46875 
Q 63.625 24.859375 63.625 18.40625 
Q 63.625 12.0625 66.03125 8.421875 
Q 68.453125 4.78125 72.703125 4.78125 
Q 76.859375 4.78125 79.265625 8.421875 
Q 81.6875 12.0625 81.6875 18.40625 
Q 81.6875 24.8125 79.265625 28.4375 
Q 76.859375 32.078125 72.703125 32.078125 
z
M 72.703125 38.28125 
Q 80.421875 38.28125 84.953125 32.90625 
Q 89.5 27.546875 89.5 18.40625 
Q 89.5 9.28125 84.9375 3.921875 
Q 80.375 -1.421875 72.703125 -1.421875 
Q 64.890625 -1.421875 60.34375 3.921875 
Q 55.8125 9.28125 55.8125 18.40625 
Q 55.8125 27.59375 60.375 32.9375 
Q 64.9375 38.28125 72.703125 38.28125 
z
M 22.3125 68.015625 
Q 18.109375 68.015625 15.6875 64.375 
Q 13.28125 60.75 13.28125 54.390625 
Q 13.28125 47.953125 15.671875 44.328125 
Q 18.0625 40.71875 22.3125 40.71875 
Q 26.5625 40.71875 28.96875 44.328125 
Q 31.390625 47.953125 31.390625 54.390625 
Q 31.390625 60.6875 28.953125 64.34375 
Q 26.515625 68.015625 22.3125 68.015625 
z
M 66.40625 74.21875 
L 74.21875 74.21875 
L 28.609375 -1.421875 
L 20.796875 -1.421875 
z
M 22.3125 74.21875 
Q 30.03125 74.21875 34.609375 68.875 
Q 39.203125 63.53125 39.203125 54.390625 
Q 39.203125 45.171875 34.640625 39.84375 
Q 30.078125 34.515625 22.3125 34.515625 
Q 14.546875 34.515625 10.03125 39.859375 
Q 5.515625 45.21875 5.515625 54.390625 
Q 5.515625 63.484375 10.046875 68.84375 
Q 14.59375 74.21875 22.3125 74.21875 
z
" id="DejaVuSans-37"/>
    </defs>
    <g transform="translate(51.591121 373.148713)scale(0.12 -0.12)">
     <use xlink:href="#DejaVuSans-45"/>
     <use x="36.083984" xlink:href="#DejaVuSans-48"/>
     <use x="99.707031" xlink:href="#DejaVuSans-46"/>
     <use x="131.494141" xlink:href="#DejaVuSans-57"/>
     <use x="195.117188" xlink:href="#DejaVuSans-37"/>
    </g>
   </g>
   <g id="text_11">
    <!-- -0.9% -->
    <g transform="translate(51.591121 347.432658)scale(0.12 -0.12)">
     <use xlink:href="#DejaVuSans-45"/>
     <use x="36.083984" xlink:href="#DejaVuSans-48"/>
     <use x="99.707031" xlink:href="#DejaVuSans-46"/>
     <use x="131.494141" xlink:href="#DejaVuSans-57"/>
     <use x="195.117188" xlink:href="#DejaVuSans-37"/>
    </g>
   </g>
   <g id="text_12">
    <!-- -1.1% -->
    <g transform="translate(51.591121 325.145412)scale(0.12 -0.12)">
     <use xlink:href="#DejaVuSans-45"/>
     <use x="36.083984" xlink:href="#DejaVuSans-49"/>
     <use x="99.707031" xlink:href="#DejaVuSans-46"/>
     <use x="131.494141" xlink:href="#DejaVuSans-49"/>
     <use x="195.117188" xlink:href="#DejaVuSans-37"/>
    </g>
   </g>
   <g id="text_13">
    <!-- -1.2% -->
    <defs>
     <path d="M 19.1875 8.296875 
L 53.609375 8.296875 
L 53.609375 0 
L 7.328125 0 
L 7.328125 8.296875 
Q 12.9375 14.109375 22.625 23.890625 
Q 32.328125 33.6875 34.8125 36.53125 
Q 39.546875 41.84375 41.421875 45.53125 
Q 43.3125 49.21875 43.3125 52.78125 
Q 43.3125 58.59375 39.234375 62.25 
Q 35.15625 65.921875 28.609375 65.921875 
Q 23.96875 65.921875 18.8125 64.3125 
Q 13.671875 62.703125 7.8125 59.421875 
L 7.8125 69.390625 
Q 13.765625 71.78125 18.9375 73 
Q 24.125 74.21875 28.421875 74.21875 
Q 39.75 74.21875 46.484375 68.546875 
Q 53.21875 62.890625 53.21875 53.421875 
Q 53.21875 48.921875 51.53125 44.890625 
Q 49.859375 40.875 45.40625 35.40625 
Q 44.1875 33.984375 37.640625 27.21875 
Q 31.109375 20.453125 19.1875 8.296875 
z
" id="DejaVuSans-50"/>
    </defs>
    <g style="fill:#ff0000;" transform="translate(51.591121 302.858165)scale(0.12 -0.12)">
     <use xlink:href="#DejaVuSans-45"/>
     <use x="36.083984" xlink:href="#DejaVuSans-49"/>
     <use x="99.707031" xlink:href="#DejaVuSans-46"/>
     <use x="131.494141" xlink:href="#DejaVuSans-50"/>
     <use x="195.117188" xlink:href="#DejaVuSans-37"/>
    </g>
   </g>
   <g id="text_14">
    <!-- -1.2% -->
    <g transform="translate(51.591121 280.570918)scale(0.12 -0.12)">
     <use xlink:href="#DejaVuSans-45"/>
     <use x="36.083984" xlink:href="#DejaVuSans-49"/>
     <use x="99.707031" xlink:href="#DejaVuSans-46"/>
     <use x="131.494141" xlink:href="#DejaVuSans-50"/>
     <use x="195.117188" xlink:href="#DejaVuSans-37"/>
    </g>
   </g>
   <g id="text_15">
    <!-- -0.7% -->
    <g transform="translate(51.591121 258.283671)scale(0.12 -0.12)">
     <use xlink:href="#DejaVuSans-45"/>
     <use x="36.083984" xlink:href="#DejaVuSans-48"/>
     <use x="99.707031" xlink:href="#DejaVuSans-46"/>
     <use x="131.494141" xlink:href="#DejaVuSans-55"/>
     <use x="195.117188" xlink:href="#DejaVuSans-37"/>
    </g>
   </g>
   <g id="text_16">
    <!-- -0.1% -->
    <g transform="translate(51.591121 235.996424)scale(0.12 -0.12)">
     <use xlink:href="#DejaVuSans-45"/>
     <use x="36.083984" xlink:href="#DejaVuSans-48"/>
     <use x="99.707031" xlink:href="#DejaVuSans-46"/>
     <use x="131.494141" xlink:href="#DejaVuSans-49"/>
     <use x="195.117188" xlink:href="#DejaVuSans-37"/>
    </g>
   </g>
   <g id="text_17">
    <!-- -0.1% -->
    <g transform="translate(51.591121 213.709177)scale(0.12 -0.12)">
     <use xlink:href="#DejaVuSans-45"/>
     <use x="36.083984" xlink:href="#DejaVuSans-48"/>
     <use x="99.707031" xlink:href="#DejaVuSans-46"/>
     <use x="131.494141" xlink:href="#DejaVuSans-49"/>
     <use x="195.117188" xlink:href="#DejaVuSans-37"/>
    </g>
   </g>
   <g id="text_18">
    <!-- 2.6% -->
    <g transform="translate(8.73103 373.148713)scale(0.12 -0.12)">
     <use xlink:href="#DejaVuSans-50"/>
     <use x="63.623047" xlink:href="#DejaVuSans-46"/>
     <use x="95.410156" xlink:href="#DejaVuSans-54"/>
     <use x="159.033203" xlink:href="#DejaVuSans-37"/>
    </g>
   </g>
   <g id="text_19">
    <!-- 2.8% -->
    <defs>
     <path d="M 31.78125 34.625 
Q 24.75 34.625 20.71875 30.859375 
Q 16.703125 27.09375 16.703125 20.515625 
Q 16.703125 13.921875 20.71875 10.15625 
Q 24.75 6.390625 31.78125 6.390625 
Q 38.8125 6.390625 42.859375 10.171875 
Q 46.921875 13.96875 46.921875 20.515625 
Q 46.921875 27.09375 42.890625 30.859375 
Q 38.875 34.625 31.78125 34.625 
z
M 21.921875 38.8125 
Q 15.578125 40.375 12.03125 44.71875 
Q 8.5 49.078125 8.5 55.328125 
Q 8.5 64.0625 14.71875 69.140625 
Q 20.953125 74.21875 31.78125 74.21875 
Q 42.671875 74.21875 48.875 69.140625 
Q 55.078125 64.0625 55.078125 55.328125 
Q 55.078125 49.078125 51.53125 44.71875 
Q 48 40.375 41.703125 38.8125 
Q 48.828125 37.15625 52.796875 32.3125 
Q 56.78125 27.484375 56.78125 20.515625 
Q 56.78125 9.90625 50.3125 4.234375 
Q 43.84375 -1.421875 31.78125 -1.421875 
Q 19.734375 -1.421875 13.25 4.234375 
Q 6.78125 9.90625 6.78125 20.515625 
Q 6.78125 27.484375 10.78125 32.3125 
Q 14.796875 37.15625 21.921875 38.8125 
z
M 18.3125 54.390625 
Q 18.3125 48.734375 21.84375 45.5625 
Q 25.390625 42.390625 31.78125 42.390625 
Q 38.140625 42.390625 41.71875 45.5625 
Q 45.3125 48.734375 45.3125 54.390625 
Q 45.3125 60.0625 41.71875 63.234375 
Q 38.140625 66.40625 31.78125 66.40625 
Q 25.390625 66.40625 21.84375 63.234375 
Q 18.3125 60.0625 18.3125 54.390625 
z
" id="DejaVuSans-56"/>
    </defs>
    <g style="fill:#ff0000;" transform="translate(8.73103 347.432658)scale(0.12 -0.12)">
     <use xlink:href="#DejaVuSans-50"/>
     <use x="63.623047" xlink:href="#DejaVuSans-46"/>
     <use x="95.410156" xlink:href="#DejaVuSans-56"/>
     <use x="159.033203" xlink:href="#DejaVuSans-37"/>
    </g>
   </g>
   <g id="text_20">
    <!-- 2.7% -->
    <g transform="translate(8.73103 325.145412)scale(0.12 -0.12)">
     <use xlink:href="#DejaVuSans-50"/>
     <use x="63.623047" xlink:href="#DejaVuSans-46"/>
     <use x="95.410156" xlink:href="#DejaVuSans-55"/>
     <use x="159.033203" xlink:href="#DejaVuSans-37"/>
    </g>
   </g>
   <g id="text_21">
    <!-- 2.8% -->
    <g transform="translate(8.73103 302.858165)scale(0.12 -0.12)">
     <use xlink:href="#DejaVuSans-50"/>
     <use x="63.623047" xlink:href="#DejaVuSans-46"/>
     <use x="95.410156" xlink:href="#DejaVuSans-56"/>
     <use x="159.033203" xlink:href="#DejaVuSans-37"/>
    </g>
   </g>
   <g id="text_22">
    <!-- 2.6% -->
    <g transform="translate(8.73103 280.570918)scale(0.12 -0.12)">
     <use xlink:href="#DejaVuSans-50"/>
     <use x="63.623047" xlink:href="#DejaVuSans-46"/>
     <use x="95.410156" xlink:href="#DejaVuSans-54"/>
     <use x="159.033203" xlink:href="#DejaVuSans-37"/>
    </g>
   </g>
   <g id="text_23">
    <!-- 2.1% -->
    <g transform="translate(8.73103 258.283671)scale(0.12 -0.12)">
     <use xlink:href="#DejaVuSans-50"/>
     <use x="63.623047" xlink:href="#DejaVuSans-46"/>
     <use x="95.410156" xlink:href="#DejaVuSans-49"/>
     <use x="159.033203" xlink:href="#DejaVuSans-37"/>
    </g>
   </g>
   <g id="text_24">
    <!-- 1.6% -->
    <g transform="translate(8.73103 235.996424)scale(0.12 -0.12)">
     <use xlink:href="#DejaVuSans-49"/>
     <use x="63.623047" xlink:href="#DejaVuSans-46"/>
     <use x="95.410156" xlink:href="#DejaVuSans-54"/>
     <use x="159.033203" xlink:href="#DejaVuSans-37"/>
    </g>
   </g>
   <g id="text_25">
    <!-- 0.7% -->
    <g transform="translate(8.73103 213.709177)scale(0.12 -0.12)">
     <use xlink:href="#DejaVuSans-48"/>
     <use x="63.623047" xlink:href="#DejaVuSans-46"/>
     <use x="95.410156" xlink:href="#DejaVuSans-55"/>
     <use x="159.033203" xlink:href="#DejaVuSans-37"/>
    </g>
   </g>
   <g id="text_26">
    <!-- GM8 = 0.8Col  -->
    <defs>
     <path d="M 59.515625 10.40625 
L 59.515625 29.984375 
L 43.40625 29.984375 
L 43.40625 38.09375 
L 69.28125 38.09375 
L 69.28125 6.78125 
Q 63.578125 2.734375 56.6875 0.65625 
Q 49.8125 -1.421875 42 -1.421875 
Q 24.90625 -1.421875 15.25 8.5625 
Q 5.609375 18.5625 5.609375 36.375 
Q 5.609375 54.25 15.25 64.234375 
Q 24.90625 74.21875 42 74.21875 
Q 49.125 74.21875 55.546875 72.453125 
Q 61.96875 70.703125 67.390625 67.28125 
L 67.390625 56.78125 
Q 61.921875 61.421875 55.765625 63.765625 
Q 49.609375 66.109375 42.828125 66.109375 
Q 29.4375 66.109375 22.71875 58.640625 
Q 16.015625 51.171875 16.015625 36.375 
Q 16.015625 21.625 22.71875 14.15625 
Q 29.4375 6.6875 42.828125 6.6875 
Q 48.046875 6.6875 52.140625 7.59375 
Q 56.25 8.5 59.515625 10.40625 
z
" id="DejaVuSans-71"/>
     <path d="M 9.8125 72.90625 
L 24.515625 72.90625 
L 43.109375 23.296875 
L 61.8125 72.90625 
L 76.515625 72.90625 
L 76.515625 0 
L 66.890625 0 
L 66.890625 64.015625 
L 48.09375 14.015625 
L 38.1875 14.015625 
L 19.390625 64.015625 
L 19.390625 0 
L 9.8125 0 
z
" id="DejaVuSans-77"/>
     <path id="DejaVuSans-32"/>
     <path d="M 10.59375 45.40625 
L 73.1875 45.40625 
L 73.1875 37.203125 
L 10.59375 37.203125 
z
M 10.59375 25.484375 
L 73.1875 25.484375 
L 73.1875 17.1875 
L 10.59375 17.1875 
z
" id="DejaVuSans-61"/>
     <path d="M 64.40625 67.28125 
L 64.40625 56.890625 
Q 59.421875 61.53125 53.78125 63.8125 
Q 48.140625 66.109375 41.796875 66.109375 
Q 29.296875 66.109375 22.65625 58.46875 
Q 16.015625 50.828125 16.015625 36.375 
Q 16.015625 21.96875 22.65625 14.328125 
Q 29.296875 6.6875 41.796875 6.6875 
Q 48.140625 6.6875 53.78125 8.984375 
Q 59.421875 11.28125 64.40625 15.921875 
L 64.40625 5.609375 
Q 59.234375 2.09375 53.4375 0.328125 
Q 47.65625 -1.421875 41.21875 -1.421875 
Q 24.65625 -1.421875 15.125 8.703125 
Q 5.609375 18.84375 5.609375 36.375 
Q 5.609375 53.953125 15.125 64.078125 
Q 24.65625 74.21875 41.21875 74.21875 
Q 47.75 74.21875 53.53125 72.484375 
Q 59.328125 70.75 64.40625 67.28125 
z
" id="DejaVuSans-67"/>
     <path d="M 30.609375 48.390625 
Q 23.390625 48.390625 19.1875 42.75 
Q 14.984375 37.109375 14.984375 27.296875 
Q 14.984375 17.484375 19.15625 11.84375 
Q 23.34375 6.203125 30.609375 6.203125 
Q 37.796875 6.203125 41.984375 11.859375 
Q 46.1875 17.53125 46.1875 27.296875 
Q 46.1875 37.015625 41.984375 42.703125 
Q 37.796875 48.390625 30.609375 48.390625 
z
M 30.609375 56 
Q 42.328125 56 49.015625 48.375 
Q 55.71875 40.765625 55.71875 27.296875 
Q 55.71875 13.875 49.015625 6.21875 
Q 42.328125 -1.421875 30.609375 -1.421875 
Q 18.84375 -1.421875 12.171875 6.21875 
Q 5.515625 13.875 5.515625 27.296875 
Q 5.515625 40.765625 12.171875 48.375 
Q 18.84375 56 30.609375 56 
z
" id="DejaVuSans-111"/>
     <path d="M 9.421875 75.984375 
L 18.40625 75.984375 
L 18.40625 0 
L 9.421875 0 
z
" id="DejaVuSans-108"/>
    </defs>
    <g transform="translate(120.129759 137.787314)scale(0.15 -0.15)">
     <use xlink:href="#DejaVuSans-71"/>
     <use x="77.490234" xlink:href="#DejaVuSans-77"/>
     <use x="163.769531" xlink:href="#DejaVuSans-56"/>
     <use x="227.392578" xlink:href="#DejaVuSans-32"/>
     <use x="259.179688" xlink:href="#DejaVuSans-61"/>
     <use x="342.96875" xlink:href="#DejaVuSans-32"/>
     <use x="374.755859" xlink:href="#DejaVuSans-48"/>
     <use x="438.378906" xlink:href="#DejaVuSans-46"/>
     <use x="470.166016" xlink:href="#DejaVuSans-56"/>
     <use x="533.789062" xlink:href="#DejaVuSans-67"/>
     <use x="603.613281" xlink:href="#DejaVuSans-111"/>
     <use x="664.794922" xlink:href="#DejaVuSans-108"/>
     <use x="692.578125" xlink:href="#DejaVuSans-32"/>
    </g>
    <!--  $IDR_{peak}$ = 0.03 -->
    <defs>
     <path d="M 16.890625 72.90625 
L 26.8125 72.90625 
L 12.59375 0 
L 2.6875 0 
z
" id="DejaVuSans-Oblique-73"/>
     <path d="M 16.890625 72.90625 
L 38.09375 72.90625 
Q 54.984375 72.90625 63.59375 65.75 
Q 72.21875 58.59375 72.21875 44.484375 
Q 72.21875 35.15625 68.9375 26.53125 
Q 65.671875 17.921875 59.90625 12.015625 
Q 54.109375 5.953125 45.171875 2.96875 
Q 36.234375 0 24.03125 0 
L 2.6875 0 
z
M 25.203125 64.796875 
L 14.203125 8.109375 
L 27.09375 8.109375 
Q 43.65625 8.109375 52.734375 17.625 
Q 61.8125 27.15625 61.8125 44.484375 
Q 61.8125 54.984375 55.953125 59.890625 
Q 50.09375 64.796875 37.59375 64.796875 
z
" id="DejaVuSans-Oblique-68"/>
     <path d="M 25.203125 64.796875 
L 20.21875 38.921875 
L 32.90625 38.921875 
Q 40.375 38.921875 44.984375 43.046875 
Q 49.609375 47.171875 49.609375 53.8125 
Q 49.609375 59.125 46.5 61.953125 
Q 43.40625 64.796875 37.59375 64.796875 
z
M 43.3125 35.015625 
Q 46.4375 34.28125 48.515625 31.390625 
Q 50.59375 28.515625 53.328125 19.921875 
L 59.515625 0 
L 49.125 0 
L 43.40625 18.703125 
Q 41.21875 25.921875 38.328125 28.359375 
Q 35.453125 30.8125 29.5 30.8125 
L 18.609375 30.8125 
L 12.59375 0 
L 2.6875 0 
L 16.890625 72.90625 
L 39.109375 72.90625 
Q 49.21875 72.90625 54.609375 68.328125 
Q 60.015625 63.765625 60.015625 55.171875 
Q 60.015625 47.5625 55.421875 41.984375 
Q 50.828125 36.421875 43.3125 35.015625 
z
" id="DejaVuSans-Oblique-82"/>
     <path d="M 49.609375 33.6875 
Q 49.609375 40.875 46.484375 44.671875 
Q 43.359375 48.484375 37.5 48.484375 
Q 33.5 48.484375 29.859375 46.4375 
Q 26.21875 44.390625 23.390625 40.484375 
Q 20.609375 36.625 18.9375 31.15625 
Q 17.28125 25.6875 17.28125 20.3125 
Q 17.28125 13.484375 20.40625 9.796875 
Q 23.53125 6.109375 29.296875 6.109375 
Q 33.546875 6.109375 37.1875 8.109375 
Q 40.828125 10.109375 43.40625 13.921875 
Q 46.1875 17.921875 47.890625 23.34375 
Q 49.609375 28.765625 49.609375 33.6875 
z
M 21.78125 46.390625 
Q 25.390625 51.125 30.296875 53.5625 
Q 35.203125 56 41.21875 56 
Q 49.609375 56 54.25 50.5 
Q 58.890625 45.015625 58.890625 35.109375 
Q 58.890625 27 56 19.65625 
Q 53.125 12.3125 47.703125 6.5 
Q 44.09375 2.640625 39.546875 0.609375 
Q 35.015625 -1.421875 29.984375 -1.421875 
Q 24.171875 -1.421875 20.21875 1 
Q 16.265625 3.421875 14.3125 8.203125 
L 8.6875 -20.796875 
L -0.296875 -20.796875 
L 14.40625 54.6875 
L 23.390625 54.6875 
z
" id="DejaVuSans-Oblique-112"/>
     <path d="M 48.09375 32.234375 
Q 48.25 33.015625 48.3125 33.84375 
Q 48.390625 34.671875 48.390625 35.5 
Q 48.390625 41.453125 44.890625 44.921875 
Q 41.40625 48.390625 35.40625 48.390625 
Q 28.71875 48.390625 23.578125 44.15625 
Q 18.453125 39.9375 15.828125 32.171875 
z
M 55.90625 25.203125 
L 14.109375 25.203125 
Q 13.8125 23.34375 13.71875 22.265625 
Q 13.625 21.1875 13.625 20.40625 
Q 13.625 13.625 17.796875 9.90625 
Q 21.96875 6.203125 29.59375 6.203125 
Q 35.453125 6.203125 40.671875 7.515625 
Q 45.90625 8.84375 50.390625 11.375 
L 48.6875 2.484375 
Q 43.84375 0.53125 38.6875 -0.4375 
Q 33.546875 -1.421875 28.21875 -1.421875 
Q 16.84375 -1.421875 10.71875 4.015625 
Q 4.59375 9.46875 4.59375 19.484375 
Q 4.59375 28.03125 7.640625 35.375 
Q 10.6875 42.71875 16.609375 48.484375 
Q 20.40625 52.09375 25.65625 54.046875 
Q 30.90625 56 36.8125 56 
Q 46.09375 56 51.578125 50.4375 
Q 57.078125 44.875 57.078125 35.5 
Q 57.078125 33.25 56.78125 30.6875 
Q 56.5 28.125 55.90625 25.203125 
z
" id="DejaVuSans-Oblique-101"/>
     <path d="M 53.71875 31.203125 
L 47.609375 0 
L 38.625 0 
L 40.28125 8.296875 
Q 36.328125 3.421875 31.265625 1 
Q 26.21875 -1.421875 20.015625 -1.421875 
Q 13.03125 -1.421875 8.5625 2.84375 
Q 4.109375 7.125 4.109375 13.8125 
Q 4.109375 23.390625 11.75 28.953125 
Q 19.390625 34.515625 32.8125 34.515625 
L 45.3125 34.515625 
L 45.796875 36.921875 
Q 45.90625 37.3125 45.953125 37.765625 
Q 46 38.234375 46 39.203125 
Q 46 43.5625 42.453125 45.96875 
Q 38.921875 48.390625 32.515625 48.390625 
Q 28.125 48.390625 23.5 47.265625 
Q 18.890625 46.140625 14.015625 43.890625 
L 15.578125 52.203125 
Q 20.65625 54.109375 25.515625 55.046875 
Q 30.375 56 34.90625 56 
Q 44.578125 56 49.625 51.796875 
Q 54.6875 47.609375 54.6875 39.59375 
Q 54.6875 37.984375 54.4375 35.8125 
Q 54.203125 33.640625 53.71875 31.203125 
z
M 44 27.484375 
L 35.015625 27.484375 
Q 23.96875 27.484375 18.671875 24.53125 
Q 13.375 21.578125 13.375 15.375 
Q 13.375 11.078125 16.078125 8.640625 
Q 18.796875 6.203125 23.578125 6.203125 
Q 30.90625 6.203125 36.375 11.453125 
Q 41.84375 16.703125 43.609375 25.484375 
z
" id="DejaVuSans-Oblique-97"/>
     <path d="M 18.3125 75.984375 
L 27.296875 75.984375 
L 18.703125 31.6875 
L 49.515625 54.6875 
L 61.1875 54.6875 
L 26.8125 28.515625 
L 51.90625 0 
L 41.015625 0 
L 17.671875 26.703125 
L 12.5 0 
L 3.515625 0 
z
" id="DejaVuSans-Oblique-107"/>
    </defs>
    <g transform="translate(118.056712 154.584033)scale(0.15 -0.15)">
     <use transform="translate(0 0.78125)" xlink:href="#DejaVuSans-32"/>
     <use transform="translate(31.787109 0.78125)" xlink:href="#DejaVuSans-Oblique-73"/>
     <use transform="translate(61.279297 0.78125)" xlink:href="#DejaVuSans-Oblique-68"/>
     <use transform="translate(138.28125 0.78125)" xlink:href="#DejaVuSans-Oblique-82"/>
     <use transform="translate(207.763672 -15.625)scale(0.7)" xlink:href="#DejaVuSans-Oblique-112"/>
     <use transform="translate(252.197266 -15.625)scale(0.7)" xlink:href="#DejaVuSans-Oblique-101"/>
     <use transform="translate(295.263672 -15.625)scale(0.7)" xlink:href="#DejaVuSans-Oblique-97"/>
     <use transform="translate(338.15918 -15.625)scale(0.7)" xlink:href="#DejaVuSans-Oblique-107"/>
     <use transform="translate(381.430664 0.78125)" xlink:href="#DejaVuSans-32"/>
     <use transform="translate(413.217773 0.78125)" xlink:href="#DejaVuSans-61"/>
     <use transform="translate(497.006836 0.78125)" xlink:href="#DejaVuSans-32"/>
     <use transform="translate(528.793945 0.78125)" xlink:href="#DejaVuSans-48"/>
     <use transform="translate(592.416992 0.78125)" xlink:href="#DejaVuSans-46"/>
     <use transform="translate(624.204102 0.78125)" xlink:href="#DejaVuSans-48"/>
     <use transform="translate(687.827148 0.78125)" xlink:href="#DejaVuSans-51"/>
    </g>
    <!--  DI = 0.85 -->
    <defs>
     <path d="M 19.671875 64.796875 
L 19.671875 8.109375 
L 31.59375 8.109375 
Q 46.6875 8.109375 53.6875 14.9375 
Q 60.6875 21.78125 60.6875 36.53125 
Q 60.6875 51.171875 53.6875 57.984375 
Q 46.6875 64.796875 31.59375 64.796875 
z
M 9.8125 72.90625 
L 30.078125 72.90625 
Q 51.265625 72.90625 61.171875 64.09375 
Q 71.09375 55.28125 71.09375 36.53125 
Q 71.09375 17.671875 61.125 8.828125 
Q 51.171875 0 30.078125 0 
L 9.8125 0 
z
" id="DejaVuSans-68"/>
     <path d="M 9.8125 72.90625 
L 19.671875 72.90625 
L 19.671875 0 
L 9.8125 0 
z
" id="DejaVuSans-73"/>
     <path d="M 10.796875 72.90625 
L 49.515625 72.90625 
L 49.515625 64.59375 
L 19.828125 64.59375 
L 19.828125 46.734375 
Q 21.96875 47.46875 24.109375 47.828125 
Q 26.265625 48.1875 28.421875 48.1875 
Q 40.625 48.1875 47.75 41.5 
Q 54.890625 34.8125 54.890625 23.390625 
Q 54.890625 11.625 47.5625 5.09375 
Q 40.234375 -1.421875 26.90625 -1.421875 
Q 22.3125 -1.421875 17.546875 -0.640625 
Q 12.796875 0.140625 7.71875 1.703125 
L 7.71875 11.625 
Q 12.109375 9.234375 16.796875 8.0625 
Q 21.484375 6.890625 26.703125 6.890625 
Q 35.15625 6.890625 40.078125 11.328125 
Q 45.015625 15.765625 45.015625 23.390625 
Q 45.015625 31 40.078125 35.4375 
Q 35.15625 39.890625 26.703125 39.890625 
Q 22.75 39.890625 18.8125 39.015625 
Q 14.890625 38.140625 10.796875 36.28125 
z
" id="DejaVuSans-53"/>
    </defs>
    <g transform="translate(136.334447 172.91122)scale(0.15 -0.15)">
     <use xlink:href="#DejaVuSans-32"/>
     <use x="31.787109" xlink:href="#DejaVuSans-68"/>
     <use x="108.789062" xlink:href="#DejaVuSans-73"/>
     <use x="138.28125" xlink:href="#DejaVuSans-32"/>
     <use x="170.068359" xlink:href="#DejaVuSans-61"/>
     <use x="253.857422" xlink:href="#DejaVuSans-32"/>
     <use x="285.644531" xlink:href="#DejaVuSans-48"/>
     <use x="349.267578" xlink:href="#DejaVuSans-46"/>
     <use x="381.054688" xlink:href="#DejaVuSans-56"/>
     <use x="444.677734" xlink:href="#DejaVuSans-53"/>
    </g>
    <!--  $\kappa$ = 0.796 -->
    <defs>
     <path d="M 14.65625 54.6875 
L 23.921875 54.6875 
L 19.484375 31.984375 
L 47.515625 54.6875 
L 58.453125 54.6875 
L 32.90625 34.078125 
L 51.171875 0 
L 40.1875 0 
L 25.4375 28.21875 
L 17.53125 21.921875 
L 13.28125 0 
L 4 0 
z
" id="DejaVuSans-Oblique-954"/>
    </defs>
    <g transform="translate(135.081712 189.707939)scale(0.15 -0.15)">
     <use transform="translate(0 0.78125)" xlink:href="#DejaVuSans-32"/>
     <use transform="translate(31.787109 0.78125)" xlink:href="#DejaVuSans-Oblique-954"/>
     <use transform="translate(90.722656 0.78125)" xlink:href="#DejaVuSans-32"/>
     <use transform="translate(122.509766 0.78125)" xlink:href="#DejaVuSans-61"/>
     <use transform="translate(206.298828 0.78125)" xlink:href="#DejaVuSans-32"/>
     <use transform="translate(238.085938 0.78125)" xlink:href="#DejaVuSans-48"/>
     <use transform="translate(301.708984 0.78125)" xlink:href="#DejaVuSans-46"/>
     <use transform="translate(333.386719 0.78125)" xlink:href="#DejaVuSans-55"/>
     <use transform="translate(397.009766 0.78125)" xlink:href="#DejaVuSans-57"/>
     <use transform="translate(460.632812 0.78125)" xlink:href="#DejaVuSans-54"/>
    </g>
   </g>
  </g>
 </g>
 <defs>
  <clipPath id="pd08c50522d">
   <rect height="184.584122" width="245.731184" x="51.591121" y="195.707939"/>
  </clipPath>
 </defs>
</svg>
